<?xml version="1.0" standalone="no"?>
<!DOCTYPE svg PUBLIC "-//W3C//DTD SVG 20010904//EN"
 "http://www.w3.org/TR/2001/REC-SVG-20010904/DTD/svg10.dtd">
<svg version="1.0" xmlns="http://www.w3.org/2000/svg"
 width="366.000000pt" height="366.000000pt" viewBox="0 0 366.000000 366.000000"
 preserveAspectRatio="xMidYMid meet">
<metadata>
Created by potrace 1.16, written by Peter Selinger 2001-2019
</metadata>
<g transform="translate(0.000000,366.000000) scale(0.100000,-0.100000)"
fill="#000000" stroke="none">
<path d="M723 2526 c-12 -6 -139 -127 -283 -269 -228 -225 -261 -261 -258
-285 2 -18 13 -32 33 -42 18 -9 29 -21 27 -31 -5 -28 26 -49 71 -49 l42 0 27
-73 c15 -39 57 -155 94 -256 49 -133 73 -185 87 -190 11 -4 47 -4 81 0 270 33
472 62 479 68 7 7 38 132 73 299 12 57 13 76 4 87 -11 13 -70 15 -376 15
l-364 0 -29 65 -30 65 -68 0 -68 0 240 234 240 234 240 -239 240 -239 360 0
c504 0 493 -15 215 294 -19 22 -61 68 -94 103 l-59 63 -98 0 c-115 0 -119 3
-119 99 l0 61 -75 0 -75 0 0 -80 0 -80 -178 0 -179 0 -68 71 c-76 79 -100 93
-132 75z m-23 -856 l0 -60 -86 0 -85 0 -14 33 c-7 18 -17 45 -20 60 l-7 27
106 0 106 0 0 -60z m200 0 l0 -60 -75 0 -75 0 0 60 0 60 75 0 75 0 0 -60z
m216 38 c-3 -13 -9 -40 -12 -60 l-7 -38 -78 0 -79 0 0 60 0 60 91 0 c90 0 91
0 85 -22z m-418 -215 l-3 -78 -49 0 -48 0 -24 64 c-35 93 -36 91 51 91 l76 0
-3 -77z m202 12 c0 -55 -3 -65 -17 -66 -10 0 -44 -4 -75 -8 l-58 -7 0 73 0 73
75 0 75 0 0 -65z m182 59 c3 -3 0 -26 -6 -52 -12 -44 -15 -47 -52 -54 -84 -15
-84 -15 -84 52 l0 60 68 0 c38 0 71 -2 74 -6z"/>
<path d="M1297 1704 c-4 -4 -7 -90 -7 -191 l0 -183 105 0 c87 0 105 3 105 15
0 12 -17 15 -90 15 l-91 0 3 73 3 72 68 3 c89 4 87 22 -3 22 l-70 0 0 75 0 75
91 0 c68 0 90 3 87 13 -5 13 -188 23 -201 11z"/>
<path d="M1755 1698 c-2 -7 -6 -47 -7 -88 l-3 -75 -72 -3 -73 -3 0 86 c0 69
-3 85 -15 85 -13 0 -15 -27 -15 -185 0 -158 2 -185 15 -185 12 0 15 17 15 90
l0 91 73 -3 72 -3 3 -87 c2 -69 6 -88 17 -88 13 0 15 29 15 184 0 113 -4 187
-10 191 -6 3 -12 0 -15 -7z"/>
<path d="M1893 1686 l-28 -24 0 -140 c0 -135 1 -141 24 -166 20 -22 33 -26 77
-26 46 0 55 4 78 31 25 30 26 35 26 164 l0 133 -31 26 c-41 35 -106 36 -146 2z
m129 -23 c16 -14 18 -33 18 -143 0 -142 -6 -157 -60 -166 -27 -4 -42 -1 -63
16 -27 21 -27 22 -27 144 0 146 9 166 72 166 25 0 49 -7 60 -17z"/>
<path d="M2156 1703 c-3 -3 -6 -75 -6 -159 0 -149 1 -153 26 -183 23 -27 32
-31 79 -31 47 0 56 3 79 31 26 31 26 32 24 185 -4 202 -22 212 -25 14 -2 -80
-5 -155 -8 -166 -6 -26 -56 -48 -89 -40 -52 13 -56 25 -56 191 0 140 -5 176
-24 158z"/>
<path d="M2473 1686 c-23 -20 -28 -32 -28 -69 0 -56 21 -81 85 -102 63 -21 92
-53 88 -95 -7 -77 -113 -93 -147 -23 -19 39 -31 42 -31 8 0 -14 11 -37 25 -50
20 -21 34 -25 79 -25 48 0 57 3 80 31 38 45 35 93 -8 134 -19 18 -47 36 -62
39 -51 13 -84 44 -84 80 0 47 27 68 81 64 38 -3 46 -7 59 -35 17 -37 37 -38
32 -2 -8 66 -113 93 -169 45z"/>
<path d="M2726 1693 c-3 -10 -5 -96 -5 -190 l1 -173 104 0 c85 0 104 3 104 15
0 11 -19 15 -87 17 l-88 3 0 70 0 70 73 3 c39 2 72 7 72 12 0 5 -33 10 -72 12
l-73 3 0 70 0 70 88 3 c68 2 87 6 87 17 0 12 -19 15 -99 15 -86 0 -100 -2
-105 -17z"/>
<path d="M3007 1703 c-4 -3 -7 -89 -7 -190 l0 -183 65 0 c71 0 117 17 135 49
17 33 12 96 -11 125 l-20 26 20 26 c36 46 22 112 -28 139 -30 15 -141 21 -154
8z m153 -43 c23 -23 26 -68 6 -95 -10 -13 -30 -20 -75 -23 l-61 -4 0 64 c0 36
3 68 7 71 3 4 28 7 55 7 35 0 54 -6 68 -20z m6 -165 c8 -11 14 -38 14 -61 0
-55 -25 -74 -97 -74 l-53 0 0 73 c0 41 3 77 8 81 14 15 114 0 128 -19z"/>
<path d="M3287 1703 c-4 -3 -7 -89 -7 -190 l0 -183 65 0 c75 0 116 17 133 55
7 15 12 72 12 135 0 121 -10 154 -51 176 -28 14 -140 20 -152 7z m159 -48 c10
-13 14 -53 14 -137 0 -145 -8 -158 -95 -158 l-55 0 0 161 0 161 61 -4 c45 -3
65 -10 75 -23z"/>
<path d="M492 1235 c-38 -32 -47 -67 -27 -109 42 -89 175 -57 175 42 0 19 -10
41 -29 61 -36 39 -78 41 -119 6z"/>
<path d="M991 1231 c-49 -46 -41 -115 19 -146 41 -21 64 -19 99 11 26 21 31
33 31 69 0 36 -5 48 -31 69 -41 34 -79 33 -118 -3z"/>
</g>
</svg>
